<svg width="220" height="40" viewBox="0 0 220 40" fill="none" xmlns="http://www.w3.org/2000/svg">
<path d="M54.6547 1.41031C54.3587 2.21613 54.2601 3.92849 54.4574 5.23794C54.7534 7.25249 55.3453 7.55467 58.6009 7.55467C65.9013 7.55467 66.0986 0.805944 58.7982 0.20158C56.3318 0.000125408 55.0493 0.302307 54.6547 1.41031Z" fill="black"/>
<path d="M159.821 2.01456C158.144 5.23783 160.215 8.0582 164.26 8.0582C168.305 8.0582 170.377 5.23783 168.7 2.01456C167.91 0.604378 166.628 1.43051e-05 164.26 1.43051e-05C161.892 1.43051e-05 160.61 0.604378 159.821 2.01456Z" fill="black"/>
<path d="M96.6816 20.1439V39.2821H101.614H106.547V30.821C106.547 23.9716 106.942 21.957 108.422 20.0432C110 18.0287 110.691 17.8272 112.17 18.7338C113.65 19.6403 113.946 21.4534 114.242 29.6123L114.538 39.2821H119.471H124.502L124.108 27.7992C123.812 17.2228 123.614 16.0141 121.444 13.6974C119.57 11.5821 118.09 11.0785 114.637 11.0785C111.874 11.0785 109.507 11.6828 108.323 12.7908C106.646 14.3018 106.547 14.1003 106.547 7.75448V1.00575H101.614H96.6816V20.1439Z" fill="black"/>
<path d="M0 3.72692C0 4.23056 1.87444 12.3895 4.1435 21.8578L8.28699 39.2837H14.009C20.3229 39.2837 19.7309 40.1902 22.1973 27.7C24.4664 16.62 24.7623 15.9149 25.8475 20.6491C26.2421 22.8651 27.3273 28.0022 28.2152 31.9306L29.7937 39.2837H35.5157H41.2377L45.2825 22.2607C47.5515 12.8931 49.3273 4.7342 49.3273 4.12983C49.3273 3.52547 47.5515 3.02183 44.9865 3.02183H40.5471L38.9686 10.7778C37.982 15.1091 36.6995 21.1527 36.1076 24.1746L34.8251 29.7146L34.2332 26.1891C33.8386 24.2753 32.556 18.2316 31.4708 12.7924L29.3004 3.02183H24.7623H20.2242L17.8565 13.9004C16.574 19.8433 15.2915 25.7862 14.9955 27.1964C14.6009 28.9087 13.713 26.2898 12.1345 18.6346C10.9507 12.4902 9.66816 6.54729 9.37219 5.23783C8.87892 3.32401 8.18834 3.02183 4.43946 3.02183C1.97309 3.02183 0 3.32401 0 3.72692Z" fill="black"/>
<path d="M131.211 21.1512V39.2821H143.049H154.888V35.253V31.2239H147.982H141.076V17.1221V3.0203H136.144H131.211V21.1512Z" fill="black"/>
<path d="M205.794 8.4615C205.005 10.3753 203.426 12.3899 202.341 13.095C199.973 14.3037 199.578 18.1313 201.749 18.1313C202.933 18.1313 203.229 19.4408 203.229 23.8728C203.229 31.4273 204.807 36.9673 207.274 38.2768C208.359 38.8812 211.516 39.2841 214.377 39.0826L219.507 38.7804L219.803 35.0535C220.099 31.5281 220 31.4273 216.843 31.5281L213.587 31.7295L213.291 24.8801L212.996 18.1313H216.547C219.803 18.1313 220 17.9299 220 14.6059C220 11.2819 219.803 11.0804 216.547 11.0804C213.39 11.0804 213.094 10.879 213.094 8.05859C213.094 5.33895 212.798 5.03677 210.135 5.03677C207.767 5.03677 206.978 5.64114 205.794 8.4615Z" fill="black"/>
<path d="M77.5426 11.1792C73.0044 11.8843 70.0448 15.1076 70.0448 19.0359C70.0448 22.9643 72.3139 25.6839 77.9372 28.1014C80.6009 29.3101 82.8699 30.7203 82.8699 31.2239C82.8699 32.5334 75.8654 32.5334 72.6098 31.2239C70.1435 30.3174 70.0448 30.4181 70.0448 34.145C70.0448 38.7785 70.9327 39.2821 78.9237 39.2821C85.8296 39.2821 89.1839 37.9727 90.6637 34.5479C93.3274 28.605 91.4529 24.7774 84.1525 21.5541C80.2063 19.741 78.9237 18.7337 79.713 17.9279C80.5022 17.1221 81.982 17.1221 84.843 17.9279C88.296 18.8345 88.9866 18.7337 89.7758 17.1221C90.9597 14.9061 91.0583 12.0857 90.0718 12.0857C89.5785 11.985 87.5067 11.6828 85.3363 11.2799C83.1659 10.877 79.6143 10.7763 77.5426 11.1792Z" fill="black"/>
<path d="M54.2601 25.1803V39.2821H59.1928H64.1255V25.1803V11.0785H59.1928H54.2601V25.1803Z" fill="black"/>
<path d="M159.821 25.1803V39.2821H164.26H168.7V25.1803V11.0785H164.26H159.821V25.1803Z" fill="black"/>
<path d="M178.368 13.093C176.197 14.8054 175.605 16.1148 175.605 19.0359C175.605 23.3672 176.888 24.8781 183.3 28.1014C185.57 29.3101 187.444 30.7203 187.444 31.2239C187.444 32.5334 181.426 32.5334 178.17 31.2239C175.704 30.3174 175.605 30.4181 175.605 34.145C175.605 38.8792 176.395 39.2821 185.175 39.2821C190.897 39.2821 191.785 38.9799 194.448 36.361C199.48 31.1232 197.704 25.4825 189.713 21.6548C183.794 18.7337 182.709 16.5177 187.74 17.525C194.35 18.7337 194.646 18.7337 195.534 15.8127C196.126 14.201 196.224 12.6901 195.83 12.2872C195.534 11.8843 191.982 11.4814 188.135 11.2799C182.018 10.9777 180.637 11.1792 178.368 13.093Z" fill="black"/>
</svg>
